<mxfile host="app.diagrams.net" modified="2023-09-02T05:59:39.224Z" agent="Mozilla/5.0 (Windows NT 10.0; Win64; x64) AppleWebKit/537.36 (KHTML, like Gecko) Chrome/116.0.0.0 Safari/537.36 Edg/116.0.1938.62" version="21.7.2" etag="o5iQjh5v7cfeiRvchyt9" type="github">
  <diagram name="Page-1" id="jaZnoSlAp7NmWS4YrAvN">
    <mxGraphModel>
      <root>
        <mxCell id="0" />
        <mxCell id="1" parent="0" />
      </root>
    </mxGraphModel>
  </diagram>
</mxfile>
